<?xml version="1.0" encoding="utf-8"?>
<!-- Generator: Adobe Illustrator 12.0.0, SVG Export Plug-In  -->
<!DOCTYPE svg PUBLIC "-//W3C//DTD SVG 1.1//EN" "http://www.w3.org/Graphics/SVG/1.1/DTD/svg11.dtd" [
	<!ENTITY ns_flows "http://ns.adobe.com/Flows/1.0/">
	<!ENTITY ns_svg "http://www.w3.org/2000/svg">
	<!ENTITY ns_xlink "http://www.w3.org/1999/xlink">
]>
<svg  version="1.1" xmlns="&ns_svg;" xmlns:xlink="&ns_xlink;" xmlns:a="http://ns.adobe.com/AdobeSVGViewerExtensions/3.0/"
	 width="100" height="100" viewBox="0 0 100 100" enable-background="new 0 0 100 100" xml:space="preserve">
<defs>
</defs>
<path fill-rule="evenodd" clip-rule="evenodd" fill="#B2B2B2" d="M50,0c27.614,0,50,22.386,50,50s-22.386,50-50,50S0,77.614,0,50
	S22.386,0,50,0z"/>
<g>
	<g>
		<path fill-rule="evenodd" clip-rule="evenodd" fill="#FF4000" d="M69.777,32.466c0.332-1.051-0.788-2.17-1.839-1.838
			l-12.125,3.823c-0.002,0-0.003,0.001-0.005,0.001l-0.023,0.007c-0.017,0.005-0.031,0.016-0.048,0.021
			c-0.069,0.024-0.139,0.049-0.205,0.084c-0.016,0.008-0.028,0.021-0.044,0.029c-0.031,0.018-0.061,0.04-0.09,0.06
			c-0.066,0.044-0.127,0.091-0.184,0.144c-0.015,0.013-0.031,0.021-0.045,0.035L31.457,58.547c-0.584,0.584-0.592,1.522-0.017,2.097
			l8.32,8.32c0.575,0.575,1.513,0.567,2.097-0.017l4.742-4.742c0,0,0,0,0,0l0,0L65.57,45.234c0.013-0.013,0.021-0.029,0.033-0.042
			c0.054-0.058,0.102-0.121,0.147-0.188c0.02-0.029,0.04-0.057,0.059-0.087c0.009-0.016,0.021-0.029,0.029-0.045
			c0.035-0.067,0.06-0.136,0.084-0.206c0.006-0.017,0.017-0.031,0.021-0.048l0.008-0.024c0-0.001,0-0.002,0.001-0.003L69.777,32.466
			z M63.657,42.058l-3.496-1.814l-1.814-3.496l7.757-2.446L63.657,42.058z M45.577,61.067l-6.24-6.239l16.477-16.478l1.921,3.7
			c0.07,0.134,0.158,0.252,0.262,0.357c0.105,0.104,0.225,0.192,0.357,0.262l3.7,1.92L45.577,61.067z M40.834,65.811l-6.24-6.24
			l2.628-2.629l6.24,6.24L40.834,65.811z"/>
	</g>
</g>
</svg>
