<?xml version="1.0" encoding="utf-8"?>
<!-- Generator: Adobe Illustrator 12.0.0, SVG Export Plug-In  -->
<!DOCTYPE svg PUBLIC "-//W3C//DTD SVG 1.1//EN" "http://www.w3.org/Graphics/SVG/1.1/DTD/svg11.dtd" [
	<!ENTITY ns_flows "http://ns.adobe.com/Flows/1.0/">
	<!ENTITY ns_svg "http://www.w3.org/2000/svg">
	<!ENTITY ns_xlink "http://www.w3.org/1999/xlink">
]>
<svg  version="1.1" xmlns="&ns_svg;" xmlns:xlink="&ns_xlink;" xmlns:a="http://ns.adobe.com/AdobeSVGViewerExtensions/3.0/"
	 width="100" height="100" viewBox="0 0 100 100" enable-background="new 0 0 100 100" xml:space="preserve">
<defs>
</defs>
<path fill-rule="evenodd" clip-rule="evenodd" fill="#B2B2B2" d="M50,0c27.614,0,50,22.386,50,50s-22.386,50-50,50S0,77.614,0,50
	S22.386,0,50,0z"/>
<g>
	<g>
		<path fill-rule="evenodd" clip-rule="evenodd" fill="#FFFF00" d="M49.781,25.844c-8.271,0-15,6.729-15,15v18
			c0,8.271,6.729,15,15,15s15-6.729,15-15v-18C64.781,32.573,58.052,25.844,49.781,25.844z M61.781,58.844c0,6.617-5.383,12-12,12
			c-6.617,0-12-5.383-12-12v-18c0-6.617,5.383-12,12-12c6.617,0,12,5.383,12,12V58.844z M49.965,34.374
			c-2.069,0-3.75,1.682-3.75,3.75v4.5c0,2.069,1.682,3.75,3.75,3.75c2.068,0,3.75-1.681,3.75-3.75v-4.5
			C53.715,36.056,52.033,34.374,49.965,34.374z M50.715,42.624c0,0.414-0.338,0.75-0.75,0.75c-0.414,0-0.75-0.336-0.75-0.75v-4.5
			c0-0.413,0.337-0.75,0.75-0.75c0.412,0,0.75,0.337,0.75,0.75V42.624z"/>
	</g>
</g>
</svg>
