<?xml version="1.0" encoding="utf-8"?>
<!-- Generator: Adobe Illustrator 12.0.0, SVG Export Plug-In  -->
<!DOCTYPE svg PUBLIC "-//W3C//DTD SVG 1.1//EN" "http://www.w3.org/Graphics/SVG/1.1/DTD/svg11.dtd" [
	<!ENTITY ns_flows "http://ns.adobe.com/Flows/1.0/">
	<!ENTITY ns_svg "http://www.w3.org/2000/svg">
	<!ENTITY ns_xlink "http://www.w3.org/1999/xlink">
]>
<svg  version="1.1" xmlns="&ns_svg;" xmlns:xlink="&ns_xlink;" xmlns:a="http://ns.adobe.com/AdobeSVGViewerExtensions/3.0/"
	 width="50" height="50" viewBox="0 0 50 50" enable-background="new 0 0 50 50" xml:space="preserve">
<defs>
</defs>
<path fill="#0000FF" d="M26.295,14.545c-0.322-0.211-0.304-0.531-0.131-1.123c0.176-0.592-0.37-2.816-0.395-3.575
	c-0.022-0.759,0.812-1.126,0.812-1.126s0.511-0.709-0.257-1.262c-0.769-0.554-1.552-0.317-1.552-0.317s-0.421,0.845-0.217,1.311
	c0.236,0.541,0.136-0.013-0.228,0.992c-0.181,0.498-0.456,1.372-0.688,2.059c-0.295,0.869-0.462,2.949-0.494,3.396
	c-0.007,0.09-0.137,0.511-0.311,1.049c-1.809,1.38-4.99,4.23-5.567,4.96c-0.76,0.962-4.912,4.915-5.469,5.827
	c-0.558,0.911-0.507,1.216-0.304,1.723c0.203,0.506,0.405,0.962,0.659,0.962c0.252,0,1.12-2.038,1.435-2.297
	c0.447-0.368,1.055-0.565,1.663-0.414c0.607,0.152,0.396,0.635-0.06,1.191c-0.456,0.557-0.328,2.212,0.562,2.611
	c1.725,0.778,1.77,0.448,2.056,0.487c0.2,0.026-0.051,0.817-0.565,0.995c-0.601,0.208-1.769,0.278-2.553,1.062
	c-0.547,0.545-1.728,3.053-2.032,3.964c-0.303,0.912-0.385,1.226-0.598,2.043c-0.17,0.656-0.052-0.052-0.71,0.201
	c-0.658,0.254-1.045,2.068-1.045,2.423c0,0.355-0.001,1.553-0.001,1.553s1.323-0.104,2.217-1.824c0.644-1.24,1.455-1.824,2.063-2.33
	c0.608-0.508,3.291-2.267,4.051-3.229c0.759-0.963,0.371-0.555,1.063-1.368c0.292-0.341,2.604-0.896,3.924-1.874
	c0.229-0.171,1.003,0.507,0.684,0.811c-0.649,0.614-0.823,0.76-1.38,1.113c-0.558,0.354,1.178,0.305,2.445-0.607
	c1.267-0.911,3.291-4.206,3.696-5.521c0.405-1.317,2.215-4.622,2.519-5.078c0.304-0.456,1.263-0.935,1.899-2.255
	c0.36-0.745-0.018-2.229,0.507-2.963c0.479-0.671,2.055-3.171,2.24-3.343c0.329-0.306,1.849-1.735,2.342-2.508
	c0.392-0.61,0.901-1.373,1.179-1.825c0.557-0.912,0.063-0.644,0.633-0.798c0.489-0.131,0.887-0.988,0.887-0.988
	s-0.306-0.76-1.216-1.013c-0.912-0.253-1.147,0.587-1.147,0.587s0.235,0.88-0.372,1.336c-0.608,0.456-2.683,1.418-3.038,1.926
	c-0.355,0.506-0.709,1.519-0.559,1.874c0.152,0.354-1.778,0.286-3.099,1.715c-0.659,0.715-0.873,0.401-1.358,0.267
	c-0.639-0.175-0.738-0.434-0.674-0.946c0.057-0.445,0.651-0.336,0.744-0.517c0.339-0.657-0.473-1.481-0.473-1.481
	s0.575-0.372,0.069-0.475c-0.507-0.101-0.413,0.009-0.644-0.344c-0.338-0.516,0.1-0.341,0.15-0.645
	c0.05-0.303-0.438-0.599-0.844-0.396c-0.407,0.202-1.905,0.869-1.917,1.141c-0.023,0.588,0.035,1.899,0.076,2.355
	C27.018,14.553,26.862,14.918,26.295,14.545z M25,0c13.806,0,25,11.194,25,25S38.806,50,25,50C11.193,50,0,38.806,0,25
	S11.193,0,25,0z"/>
</svg>
