<?xml version="1.0" encoding="utf-8"?>
<!-- Generator: Adobe Illustrator 12.0.0, SVG Export Plug-In  -->
<!DOCTYPE svg PUBLIC "-//W3C//DTD SVG 1.1//EN" "http://www.w3.org/Graphics/SVG/1.1/DTD/svg11.dtd" [
	<!ENTITY ns_flows "http://ns.adobe.com/Flows/1.0/">
	<!ENTITY ns_svg "http://www.w3.org/2000/svg">
	<!ENTITY ns_xlink "http://www.w3.org/1999/xlink">
]>
<svg  version="1.1" xmlns="&ns_svg;" xmlns:xlink="&ns_xlink;" xmlns:a="http://ns.adobe.com/AdobeSVGViewerExtensions/3.0/"
	 width="40" height="40" viewBox="-0.233 -0.725 40 40" enable-background="new -0.233 -0.725 40 40" xml:space="preserve">
<defs>
</defs>
<g>
	<g>
		<path fill="#0000FF" d="M38.763,1.897c0.332-1.051-0.788-2.17-1.839-1.838L24.799,3.883c-0.002,0-0.003,0.001-0.005,0.001
			l-0.023,0.007c-0.017,0.005-0.031,0.016-0.048,0.021c-0.069,0.024-0.139,0.049-0.205,0.084c-0.016,0.008-0.028,0.021-0.044,0.029
			c-0.031,0.018-0.061,0.04-0.09,0.06c-0.066,0.044-0.127,0.091-0.184,0.144c-0.015,0.013-0.031,0.021-0.045,0.035L0.443,27.979
			c-0.584,0.584-0.592,1.522-0.017,2.097l8.32,8.32c0.575,0.575,1.513,0.567,2.097-0.017l4.742-4.742c0,0,0,0,0,0l0,0l18.971-18.971
			c0.013-0.013,0.021-0.029,0.033-0.042c0.054-0.058,0.102-0.121,0.147-0.188c0.02-0.029,0.04-0.057,0.059-0.087
			c0.009-0.016,0.021-0.029,0.029-0.045c0.035-0.067,0.06-0.136,0.084-0.206c0.006-0.017,0.017-0.031,0.021-0.048l0.008-0.024
			c0-0.001,0-0.002,0.001-0.003L38.763,1.897z M32.643,11.489l-3.496-1.814l-1.814-3.496l7.757-2.446L32.643,11.489z M14.563,30.499
			l-6.24-6.239L24.799,7.782l1.921,3.7c0.07,0.134,0.158,0.252,0.262,0.357c0.105,0.104,0.225,0.192,0.357,0.262l3.7,1.92
			L14.563,30.499z M9.82,35.242l-6.24-6.24l2.628-2.629l6.24,6.24L9.82,35.242z"/>
	</g>
</g>
</svg>
